# xmcd
#
# Track frame offsets:
#	150
#	17140
#	35051
#	51109
#	69974
#	87656
#	100472
#	114837
#	135969
#	156978
#
# Disc length: 2291 seconds
#
# Revision: 0
# Processed by: cddbd v1.5.2PL0 Copyright (c) Steve Scherf et al.
# Submitted via: EasyCDDAExtractor 12.0.0.1
#
DISCID=8008f10a
DTITLE=Paulina Rubio - Original Masters - CD 2 (La Chica Dorada)
DYEAR=2005
DGENRE=Latin
TTITLE0=Mio
TTITLE1=Dime Si Soy Sexy
TTITLE2=Sabor A Miel
TTITLE3=El Primer Amor
TTITLE4=Amor De Mujer
TTITLE5=La Escoba
TTITLE6=La Chica Dorada
TTITLE7=Abriendo Las Puertas Al Amor
TTITLE8=Sangre Latina
TTITLE9=Amarte En Libertad
EXTD=
EXTT0=
EXTT1=
EXTT2=
EXTT3=
EXTT4=
EXTT5=
EXTT6=
EXTT7=
EXTT8=
EXTT9=
PLAYORDER=
